# xmcd
# 
# Track frame offsets:
#     150
#     10391
#     20555
#     28768
#     38242
#     50017
#     59804
#     71201
#     81491
#     91237
#     102109
#     111156
#     123275
#     132626
#     144561
#     156237
#     163843
#     174355
#     182038
#     191135
# 
# Disc length: 2668
# 
# Revision: 0
# Processed by: cddbd v1.5.2PL0 Copyright (c) Steve Scherf et al.
# Submitted via: BonkEnc v1.0.15
# 
DISCID=2a0a6a14
DTITLE=Johnny Cash - The Essential 2
DYEAR=0
DGENRE=Country
TTITLE0=Goodbye, Little Darlin'
TTITLE1=I Was There When It Happened
TTITLE2=Sugartime
TTITLE3=Down The Street To 301
TTITLE4=Doin' My Time
TTITLE5=The Story Of A Broken Heart
TTITLE6=Big River
TTITLE7=The Ways Of A Woman In Love
TTITLE8=It's Just About Time
TTITLE9=Belshazzar
TTITLE10=Life Goes On
TTITLE11=You're The Nearest Thing To Heaven
TTITLE12=Luther Played The Boogie
TTITLE13=Home Of The Blues
TTITLE14=The Port Of Lonely Hearts
TTITLE15=Come In Stranger
TTITLE16=Cold, Cold Heart
TTITLE17=Hey, Good Lookin'
TTITLE18=Blue Train
TTITLE19=Remember Me (I'm The One Who Loves You)
EXTD=
EXTT0=
EXTT1=
EXTT2=
EXTT3=
EXTT4=
EXTT5=
EXTT6=
EXTT7=
EXTT8=
EXTT9=
EXTT10=
EXTT11=
EXTT12=
EXTT13=
EXTT14=
EXTT15=
EXTT16=
EXTT17=
EXTT18=
EXTT19=
PLAYORDER=
